# xmcd CD database file
#
# Track frame offsets:
#	150
#	9570
#	27805
#	41437
#	60600
#	76400
#	92575
#	103087
#	123572
#	143435
#	171730
#	180187
#	206450
#	222040
#	233582
#	251022
#	273082
#	285420
#	306942
#	315247
#
# Disc length: 4508 seconds
#
# Revision: 9
# Processed by: cddbd v1.5.2PL0 Copyright (c) Steve Scherf et al.
# Submitted via: CDex 1.51
#
DISCID=02119a14
DTITLE=Johannes Brahms - Pièces pour piano Op.116-119  (Hélène Grimaud, piano)
DYEAR=1995
DGENRE=Classique
TTITLE0=Fantasien Op.116 - Heft I - I. Capriccio, en ré mineur - Presto energico
TTITLE1=Fantasien Op.116 - Heft I - II. Intermezzo, en la mineur - Andante
TTITLE2=Fantasien Op.116 - Heft I - III. Capriccio, en sol mineur - Allegro passionato
TTITLE3=Fantasien Op.116 - Heft II - IV. Intermezzo, en mi majeur - Adagio
TTITLE4=Fantasien Op.116 - Heft II - V. Intermezzo, en mi majeur - Andante con grazia
TTITLE5=Fantasien Op.116 - Heft II - VI. Intermezzo, en mi majeur - Andante teneramente
TTITLE6=Fantasien Op.116 - Heft II - VII. Capriccio, en ré mineur - Allegro agitato
TTITLE7=Drei Intermezzi Op.117 - I. Intermezzo, en mi bémol majeur - Andante moderato
TTITLE8=Drei Intermezzi Op.117 - II. Intermezzo, en mi bémol majeur - Andante non troppo
TTITLE9=Drei Intermezzi Op.117 - III. Intermezzo, en ut dièse mineur - Andante con moto
TTITLE10=Klavierstücke Op.118 - I. Intermezzo, en la mineur - Allegro non assai
TTITLE11=Klavierstücke Op.118 - II. Intermezzo, en la majeur - Andante teneramente
TTITLE12=Klavierstücke Op.118 - III. Intermezzo, en sol mineur - Allegro energico
TTITLE13=Klavierstücke Op.118 - IV. Intermezzo, en fa mineur f-moll - Allegretto un poco agitato
TTITLE14=Klavierstücke Op.118 - V. Intermezzo, en fa majeur - Andante
TTITLE15=Klavierstücke Op.118 - VI. Intermezzo, en mi bémol mineur - Andante, largo e mesto
TTITLE16=Klavierstücke Op.119 - I. Intermezzo, en si mineur - Adagio
TTITLE17=Klavierstücke Op.119 - II. Intermezzo, en mi mineur - Andantino un poco agitato
TTITLE18=Klavierstücke Op.119 - III. Intermezzo, en ut majeur - Grazioso e giocoso
TTITLE19=Klavierstücke Op.119 - IV. Rhapsodie, en mi bémol majeur - Allegro risoluto
EXTD=Erato 0630-14350-2 YEAR: 1995
EXTT0=
EXTT1=
EXTT2=
EXTT3=
EXTT4=
EXTT5=
EXTT6=
EXTT7=
EXTT8=
EXTT9=
EXTT10=
EXTT11=
EXTT12=
EXTT13=
EXTT14=
EXTT15=
EXTT16=
EXTT17=
EXTT18=
EXTT19=
PLAYORDER=
